<svg width="40" height="42" viewBox="0 0 40 42" fill="none" xmlns="http://www.w3.org/2000/svg">
<path d="M11.2745 37.6388C16.4386 36.4173 21.2915 33.3782 24.7312 29.3488C25.5784 28.3563 26.3699 27.2215 27.056 26.1134C28.0833 24.4543 29.0018 22.636 29.7239 20.8234L30.5321 18.5285C30.5517 18.4693 30.5515 18.4039 30.612 18.3826L31.5818 18.8502C31.5462 19.1103 31.4193 19.3828 31.331 19.6315L30.7041 21.3162C29.3137 24.8395 27.2403 28.25 24.6266 31.0017C23.6745 32.004 22.5837 32.9485 21.4842 33.7844C20.9173 34.2154 20.3168 34.5925 19.7121 34.9669C17.0971 36.586 14.3101 37.6636 11.3092 38.323C10.3418 38.4816 9.38607 38.6291 8.40616 38.6896C7.31538 38.7569 6.1981 38.7186 5.10684 38.6729C4.64534 38.6536 4.06129 38.6762 3.62109 38.5419L5.86092 38.5243C7.68002 38.4389 9.51839 38.1154 11.2745 37.6388Z" fill="#0098E9"/>
<path d="M33.5996 0.320312C33.6011 0.395181 33.5955 0.44573 33.5664 0.516022C33.3606 1.0125 33.0704 1.49825 32.83 1.9808L30.0396 7.26009L26.2394 14.3428C25.6822 15.3598 25.1703 16.4307 24.548 17.4091L24.5441 17.4123C24.4661 17.6424 24.3251 17.8534 24.1992 18.0603L23.7856 18.7818L22.2131 21.5039C20.4215 24.4631 18.5005 27.3736 16.0431 29.8296C13.7236 32.1479 10.8774 33.9945 7.94482 35.4416C7.4536 35.684 6.94947 35.8889 6.43892 36.0862C6.18658 36.1837 5.90876 36.3136 5.63894 36.3441L5.57227 36.302C7.40872 35.2105 9.17638 33.9774 10.7799 32.5637C15.4615 28.4365 18.6994 22.9941 20.9104 17.2083L22.0115 13.875C22.0081 13.7921 22.0639 13.6491 22.0842 13.5653L22.2938 12.7443L18.5815 10.8855C19.195 10.4127 19.8678 10.0157 20.4963 9.56173L28.8176 3.77613L31.5342 1.90914C32.2594 1.40399 32.976 0.951567 33.5996 0.320312Z" fill="#0098E9"/>
<path d="M35.9899 20.1913C35.8768 19.7922 35.7306 19.4021 35.5817 19.0151C35.4976 18.7965 35.312 18.5114 35.3153 18.2824L35.312 8.80469C36.0088 9.7333 36.682 10.648 37.2643 11.6563C39.0556 14.758 40.0311 18.5011 39.9978 22.0829C40.016 23.0845 39.9233 24.1009 39.779 25.0916C39.4358 27.4474 38.7127 29.7178 37.5472 31.7998C34.9966 36.3563 30.6492 39.71 25.6321 41.1129C21.477 42.2748 17.1781 42.0835 13.1304 40.6026C12.3971 40.3343 11.6151 40.0622 10.9346 39.6795C11.165 39.5744 11.5033 39.5517 11.7559 39.5056L13.0069 39.2414C14.0124 38.9941 15.0066 38.7032 15.9826 38.3566C16.5486 38.1556 17.1098 37.8848 17.6863 37.7208C17.7984 37.6889 17.8853 37.6997 17.9986 37.7181L19.4694 37.8421C23.7226 38.0044 28.0136 36.2878 31.1112 33.3969C33.8474 30.8431 35.6761 27.2683 35.9822 23.5201C36.0359 22.863 36.0518 22.1966 36.0324 21.5376C36.0193 21.0896 35.9753 20.6396 35.9899 20.1913Z" fill="#0098E9"/>
<path d="M0.000171884 21.8691C0.00543177 19.381 0.54235 16.7567 1.49097 14.4578C1.9895 13.2499 2.567 12.0717 3.27756 10.9732C4.70354 8.7686 6.54211 6.93454 8.69484 5.4408C9.78924 4.6814 10.9666 3.99481 12.1988 3.48405C15.8313 1.97829 19.7257 1.52 23.6022 2.2268C24.8215 2.44908 26.0476 2.77383 27.1937 3.24989L23.0949 5.95531L22.6143 6.27289C22.5777 6.29734 22.4877 6.37453 22.4543 6.37993C22.3104 6.40295 21.9944 6.29762 21.837 6.27623L20.715 6.17719C16.5264 5.98749 12.3727 7.42262 9.27158 10.2671C6.08177 13.1929 4.24716 17.2003 4.06135 21.5198C4.06306 22.1202 4.03881 22.724 4.08608 23.3234C4.35816 26.7731 5.75066 30.0524 8.01583 32.6606C7.01003 33.5567 5.88647 34.3259 4.75429 35.0528C4.14408 34.3841 3.63134 33.6407 3.1475 32.8776C1.07401 29.6076 -0.0157444 25.7385 0.000171884 21.8691Z" fill="#0098E9"/>
<path d="M33.5997 0.320315C33.6752 0.248042 33.7427 0.186222 33.8337 0.134033L33.8535 18.393L29.7739 16.3472C28.8459 19.1364 27.8079 21.9308 26.3608 24.4969C24.5844 27.6468 22.0875 30.4473 19.1424 32.5506C17.9608 33.3944 16.6997 34.1099 15.4017 34.7582C12.0513 36.4318 8.41006 37.2895 4.71653 37.7654L1.82031 38.0665C2.8227 37.7381 3.77795 37.2404 4.71236 36.7546L5.39758 36.3844C5.42477 36.3701 5.54165 36.2998 5.57239 36.302L5.63906 36.3441C5.90889 36.3136 6.1867 36.1837 6.43904 36.0862C6.94959 35.8889 7.45372 35.684 7.94494 35.4416C10.8776 33.9945 13.7237 32.1479 16.0433 29.8296C18.5006 27.3736 20.4217 24.4631 22.2132 21.5039L23.7857 18.7818L24.1993 18.0603C24.3252 17.8534 24.4662 17.6424 24.5443 17.4123L24.5481 17.4091C25.1705 16.4307 25.6823 15.3598 26.2395 14.3428L30.0397 7.26009L32.8302 1.9808C33.0705 1.49826 33.3607 1.0125 33.5665 0.516024C33.5956 0.445733 33.6012 0.395183 33.5997 0.320315Z" fill="#0098E9"/>
</svg>
